<mxfile host="app.diagrams.net" modified="2024-02-29T01:47:33.223Z" agent="Mozilla/5.0 (Windows NT 10.0; Win64; x64) AppleWebKit/537.36 (KHTML, like Gecko) Chrome/121.0.0.0 Safari/537.36" etag="G0dnFBoXYiozdasA6UPg" version="23.1.5" type="device">
  <diagram name="Halaman-1" id="5_LG4JcNcMBh-DOUVUNL">
    <mxGraphModel dx="1222" dy="628" grid="1" gridSize="10" guides="1" tooltips="1" connect="1" arrows="1" fold="1" page="1" pageScale="1" pageWidth="827" pageHeight="1169" math="0" shadow="0">
      <root>
        <mxCell id="0" />
        <mxCell id="1" parent="0" />
        <mxCell id="RDjT8PZ8NeMzYGrtrsEn-1" value="USER" style="shape=umlActor;verticalLabelPosition=bottom;verticalAlign=top;html=1;outlineConnect=0;" vertex="1" parent="1">
          <mxGeometry x="40" y="220" width="40" height="80" as="geometry" />
        </mxCell>
        <mxCell id="RDjT8PZ8NeMzYGrtrsEn-2" value="" style="rounded=0;whiteSpace=wrap;html=1;" vertex="1" parent="1">
          <mxGeometry x="51.25" y="360" width="17.5" height="410" as="geometry" />
        </mxCell>
        <mxCell id="RDjT8PZ8NeMzYGrtrsEn-6" value="SEQUENCE DIAGRAM REGISTRASI" style="rounded=0;whiteSpace=wrap;html=1;" vertex="1" parent="1">
          <mxGeometry x="240" y="130" width="216" height="60" as="geometry" />
        </mxCell>
        <mxCell id="RDjT8PZ8NeMzYGrtrsEn-7" value="" style="endArrow=none;dashed=1;html=1;dashPattern=1 3;strokeWidth=2;rounded=0;exitX=0.5;exitY=0;exitDx=0;exitDy=0;" edge="1" parent="1" source="RDjT8PZ8NeMzYGrtrsEn-2" target="RDjT8PZ8NeMzYGrtrsEn-1">
          <mxGeometry width="50" height="50" relative="1" as="geometry">
            <mxPoint x="390" y="450" as="sourcePoint" />
            <mxPoint x="440" y="400" as="targetPoint" />
          </mxGeometry>
        </mxCell>
        <mxCell id="RDjT8PZ8NeMzYGrtrsEn-9" value="SISTEM" style="rounded=0;whiteSpace=wrap;html=1;" vertex="1" parent="1">
          <mxGeometry x="430" y="230" width="120" height="60" as="geometry" />
        </mxCell>
        <mxCell id="RDjT8PZ8NeMzYGrtrsEn-10" value="BASIS DATA" style="rounded=0;whiteSpace=wrap;html=1;" vertex="1" parent="1">
          <mxGeometry x="650" y="230" width="120" height="60" as="geometry" />
        </mxCell>
        <mxCell id="RDjT8PZ8NeMzYGrtrsEn-13" value="" style="endArrow=classic;html=1;rounded=0;exitX=0.984;exitY=0.046;exitDx=0;exitDy=0;exitPerimeter=0;entryX=-0.137;entryY=0.081;entryDx=0;entryDy=0;entryPerimeter=0;" edge="1" parent="1" source="RDjT8PZ8NeMzYGrtrsEn-2" target="RDjT8PZ8NeMzYGrtrsEn-26">
          <mxGeometry width="50" height="50" relative="1" as="geometry">
            <mxPoint x="390" y="450" as="sourcePoint" />
            <mxPoint x="270" y="384" as="targetPoint" />
          </mxGeometry>
        </mxCell>
        <mxCell id="RDjT8PZ8NeMzYGrtrsEn-14" value="membuka aplikasi" style="text;html=1;align=center;verticalAlign=middle;whiteSpace=wrap;rounded=0;" vertex="1" parent="1">
          <mxGeometry x="90" y="360" width="150" height="10" as="geometry" />
        </mxCell>
        <mxCell id="RDjT8PZ8NeMzYGrtrsEn-15" value="" style="endArrow=none;dashed=1;html=1;dashPattern=1 3;strokeWidth=2;rounded=0;entryX=0.5;entryY=1;entryDx=0;entryDy=0;exitX=0.5;exitY=0;exitDx=0;exitDy=0;" edge="1" parent="1" source="RDjT8PZ8NeMzYGrtrsEn-16" target="RDjT8PZ8NeMzYGrtrsEn-9">
          <mxGeometry width="50" height="50" relative="1" as="geometry">
            <mxPoint x="300" y="380" as="sourcePoint" />
            <mxPoint x="440" y="400" as="targetPoint" />
          </mxGeometry>
        </mxCell>
        <mxCell id="RDjT8PZ8NeMzYGrtrsEn-54" style="edgeStyle=orthogonalEdgeStyle;rounded=0;orthogonalLoop=1;jettySize=auto;html=1;exitX=1;exitY=0.5;exitDx=0;exitDy=0;entryX=1;entryY=0.5;entryDx=0;entryDy=0;" edge="1" parent="1" source="RDjT8PZ8NeMzYGrtrsEn-21" target="RDjT8PZ8NeMzYGrtrsEn-46">
          <mxGeometry relative="1" as="geometry" />
        </mxCell>
        <mxCell id="RDjT8PZ8NeMzYGrtrsEn-58" value="menyimmpan data pengguna baru" style="edgeLabel;html=1;align=center;verticalAlign=middle;resizable=0;points=[];" vertex="1" connectable="0" parent="RDjT8PZ8NeMzYGrtrsEn-54">
          <mxGeometry x="-0.0259" y="3" relative="1" as="geometry">
            <mxPoint x="47" y="4" as="offset" />
          </mxGeometry>
        </mxCell>
        <mxCell id="RDjT8PZ8NeMzYGrtrsEn-21" value="" style="rounded=0;whiteSpace=wrap;html=1;" vertex="1" parent="1">
          <mxGeometry x="700" y="360" width="20" height="390" as="geometry" />
        </mxCell>
        <mxCell id="RDjT8PZ8NeMzYGrtrsEn-22" value="" style="endArrow=none;dashed=1;html=1;rounded=0;entryX=0.5;entryY=1;entryDx=0;entryDy=0;exitX=0.5;exitY=0;exitDx=0;exitDy=0;" edge="1" parent="1" source="RDjT8PZ8NeMzYGrtrsEn-21" target="RDjT8PZ8NeMzYGrtrsEn-10">
          <mxGeometry width="50" height="50" relative="1" as="geometry">
            <mxPoint x="474" y="410" as="sourcePoint" />
            <mxPoint x="440" y="500" as="targetPoint" />
          </mxGeometry>
        </mxCell>
        <mxCell id="RDjT8PZ8NeMzYGrtrsEn-24" value="APLIKASI" style="rounded=0;whiteSpace=wrap;html=1;" vertex="1" parent="1">
          <mxGeometry x="220" y="230" width="120" height="60" as="geometry" />
        </mxCell>
        <mxCell id="RDjT8PZ8NeMzYGrtrsEn-25" value="" style="endArrow=none;dashed=1;html=1;dashPattern=1 3;strokeWidth=2;rounded=0;entryX=0.5;entryY=1;entryDx=0;entryDy=0;" edge="1" parent="1" target="RDjT8PZ8NeMzYGrtrsEn-24">
          <mxGeometry width="50" height="50" relative="1" as="geometry">
            <mxPoint x="280" y="370" as="sourcePoint" />
            <mxPoint x="440" y="430" as="targetPoint" />
          </mxGeometry>
        </mxCell>
        <mxCell id="RDjT8PZ8NeMzYGrtrsEn-26" value="" style="rounded=0;whiteSpace=wrap;html=1;" vertex="1" parent="1">
          <mxGeometry x="270" y="360" width="20" height="220" as="geometry" />
        </mxCell>
        <mxCell id="RDjT8PZ8NeMzYGrtrsEn-27" value="" style="endArrow=none;dashed=1;html=1;dashPattern=1 3;strokeWidth=2;rounded=0;entryX=-0.075;entryY=0.621;entryDx=0;entryDy=0;exitX=1.272;exitY=0.333;exitDx=0;exitDy=0;exitPerimeter=0;entryPerimeter=0;" edge="1" parent="1" source="RDjT8PZ8NeMzYGrtrsEn-2" target="RDjT8PZ8NeMzYGrtrsEn-26">
          <mxGeometry width="50" height="50" relative="1" as="geometry">
            <mxPoint x="70" y="455" as="sourcePoint" />
            <mxPoint x="440" y="430" as="targetPoint" />
            <Array as="points">
              <mxPoint x="230" y="497" />
            </Array>
          </mxGeometry>
        </mxCell>
        <mxCell id="RDjT8PZ8NeMzYGrtrsEn-28" value="memilih registrasi" style="text;html=1;align=center;verticalAlign=middle;whiteSpace=wrap;rounded=0;" vertex="1" parent="1">
          <mxGeometry x="120" y="470" width="110" height="30" as="geometry" />
        </mxCell>
        <mxCell id="RDjT8PZ8NeMzYGrtrsEn-30" value="Menampilkan halaman registrasi" style="text;html=1;align=center;verticalAlign=middle;whiteSpace=wrap;rounded=0;" vertex="1" parent="1">
          <mxGeometry x="80" y="400" width="180" height="30" as="geometry" />
        </mxCell>
        <mxCell id="RDjT8PZ8NeMzYGrtrsEn-16" value="" style="rounded=0;whiteSpace=wrap;html=1;" vertex="1" parent="1">
          <mxGeometry x="480" y="360" width="20" height="200" as="geometry" />
        </mxCell>
        <mxCell id="RDjT8PZ8NeMzYGrtrsEn-36" value="" style="endArrow=classic;html=1;rounded=0;exitX=1;exitY=0.5;exitDx=0;exitDy=0;entryX=0.05;entryY=0.558;entryDx=0;entryDy=0;entryPerimeter=0;" edge="1" parent="1" source="RDjT8PZ8NeMzYGrtrsEn-26" target="RDjT8PZ8NeMzYGrtrsEn-16">
          <mxGeometry width="50" height="50" relative="1" as="geometry">
            <mxPoint x="390" y="480" as="sourcePoint" />
            <mxPoint x="480" y="530" as="targetPoint" />
          </mxGeometry>
        </mxCell>
        <mxCell id="RDjT8PZ8NeMzYGrtrsEn-37" value="meminta data pengguna baru untuk registrasi" style="text;html=1;align=center;verticalAlign=middle;whiteSpace=wrap;rounded=0;" vertex="1" parent="1">
          <mxGeometry x="303" y="440" width="170" height="30" as="geometry" />
        </mxCell>
        <mxCell id="RDjT8PZ8NeMzYGrtrsEn-39" value="" style="endArrow=classic;html=1;rounded=0;entryX=-0.075;entryY=0.481;entryDx=0;entryDy=0;entryPerimeter=0;exitX=1;exitY=0.75;exitDx=0;exitDy=0;" edge="1" parent="1" source="RDjT8PZ8NeMzYGrtrsEn-16" target="RDjT8PZ8NeMzYGrtrsEn-21">
          <mxGeometry width="50" height="50" relative="1" as="geometry">
            <mxPoint x="510" y="550" as="sourcePoint" />
            <mxPoint x="440" y="490" as="targetPoint" />
            <Array as="points">
              <mxPoint x="660" y="510" />
            </Array>
          </mxGeometry>
        </mxCell>
        <mxCell id="RDjT8PZ8NeMzYGrtrsEn-40" value="menyimpan registrasi pengguna baru didatabase" style="text;html=1;align=center;verticalAlign=middle;whiteSpace=wrap;rounded=0;" vertex="1" parent="1">
          <mxGeometry x="520" y="515" width="170" height="30" as="geometry" />
        </mxCell>
        <mxCell id="RDjT8PZ8NeMzYGrtrsEn-46" value="" style="rounded=0;whiteSpace=wrap;html=1;" vertex="1" parent="1">
          <mxGeometry x="710" y="590" width="20" height="60" as="geometry" />
        </mxCell>
        <mxCell id="RDjT8PZ8NeMzYGrtrsEn-55" value="" style="endArrow=none;dashed=1;html=1;dashPattern=1 3;strokeWidth=2;rounded=0;entryX=0.5;entryY=1;entryDx=0;entryDy=0;" edge="1" parent="1" target="RDjT8PZ8NeMzYGrtrsEn-16">
          <mxGeometry width="50" height="50" relative="1" as="geometry">
            <mxPoint x="490" y="610" as="sourcePoint" />
            <mxPoint x="440" y="470" as="targetPoint" />
          </mxGeometry>
        </mxCell>
        <mxCell id="RDjT8PZ8NeMzYGrtrsEn-56" value="" style="rounded=0;whiteSpace=wrap;html=1;" vertex="1" parent="1">
          <mxGeometry x="480" y="610" width="20" height="110" as="geometry" />
        </mxCell>
        <mxCell id="RDjT8PZ8NeMzYGrtrsEn-62" value="" style="endArrow=none;dashed=1;html=1;dashPattern=1 3;strokeWidth=2;rounded=0;entryX=0;entryY=0.75;entryDx=0;entryDy=0;exitX=0.988;exitY=0.377;exitDx=0;exitDy=0;exitPerimeter=0;" edge="1" parent="1" source="RDjT8PZ8NeMzYGrtrsEn-56" target="RDjT8PZ8NeMzYGrtrsEn-21">
          <mxGeometry width="50" height="50" relative="1" as="geometry">
            <mxPoint x="390" y="600" as="sourcePoint" />
            <mxPoint x="440" y="550" as="targetPoint" />
          </mxGeometry>
        </mxCell>
        <mxCell id="RDjT8PZ8NeMzYGrtrsEn-63" value="berhasil menyimpan data peggunna baru" style="text;html=1;align=center;verticalAlign=middle;whiteSpace=wrap;rounded=0;" vertex="1" parent="1">
          <mxGeometry x="520" y="620" width="170" height="30" as="geometry" />
        </mxCell>
        <mxCell id="RDjT8PZ8NeMzYGrtrsEn-65" value="" style="endArrow=none;dashed=1;html=1;dashPattern=1 3;strokeWidth=2;rounded=0;entryX=0.5;entryY=1;entryDx=0;entryDy=0;" edge="1" parent="1" target="RDjT8PZ8NeMzYGrtrsEn-26">
          <mxGeometry width="50" height="50" relative="1" as="geometry">
            <mxPoint x="280" y="640" as="sourcePoint" />
            <mxPoint x="440" y="550" as="targetPoint" />
          </mxGeometry>
        </mxCell>
        <mxCell id="RDjT8PZ8NeMzYGrtrsEn-66" value="" style="endArrow=none;dashed=1;html=1;dashPattern=1 3;strokeWidth=2;rounded=0;entryX=0.113;entryY=0.571;entryDx=0;entryDy=0;entryPerimeter=0;exitX=0.988;exitY=0.197;exitDx=0;exitDy=0;exitPerimeter=0;" edge="1" parent="1" source="RDjT8PZ8NeMzYGrtrsEn-67" target="RDjT8PZ8NeMzYGrtrsEn-56">
          <mxGeometry width="50" height="50" relative="1" as="geometry">
            <mxPoint x="300" y="670" as="sourcePoint" />
            <mxPoint x="440" y="550" as="targetPoint" />
          </mxGeometry>
        </mxCell>
        <mxCell id="RDjT8PZ8NeMzYGrtrsEn-67" value="" style="rounded=0;whiteSpace=wrap;html=1;" vertex="1" parent="1">
          <mxGeometry x="270" y="640" width="20" height="160" as="geometry" />
        </mxCell>
        <mxCell id="RDjT8PZ8NeMzYGrtrsEn-68" value="menampilakn halaman berhasil registraasi" style="text;html=1;align=center;verticalAlign=middle;whiteSpace=wrap;rounded=0;" vertex="1" parent="1">
          <mxGeometry x="303" y="640" width="172" height="30" as="geometry" />
        </mxCell>
        <mxCell id="RDjT8PZ8NeMzYGrtrsEn-69" value="" style="endArrow=none;dashed=1;html=1;dashPattern=1 3;strokeWidth=2;rounded=0;exitX=0.915;exitY=0.876;exitDx=0;exitDy=0;exitPerimeter=0;" edge="1" parent="1" source="RDjT8PZ8NeMzYGrtrsEn-2" target="RDjT8PZ8NeMzYGrtrsEn-67">
          <mxGeometry width="50" height="50" relative="1" as="geometry">
            <mxPoint x="390" y="530" as="sourcePoint" />
            <mxPoint x="440" y="480" as="targetPoint" />
          </mxGeometry>
        </mxCell>
        <mxCell id="RDjT8PZ8NeMzYGrtrsEn-70" value="pengguna baru dapat login menggunakan akun yang telah di registrasi" style="text;html=1;align=center;verticalAlign=middle;whiteSpace=wrap;rounded=0;" vertex="1" parent="1">
          <mxGeometry x="100" y="680" width="140" height="30" as="geometry" />
        </mxCell>
        <mxCell id="RDjT8PZ8NeMzYGrtrsEn-71" value="" style="endArrow=classic;html=1;rounded=0;exitX=-0.262;exitY=0.359;exitDx=0;exitDy=0;exitPerimeter=0;entryX=1.071;entryY=0.195;entryDx=0;entryDy=0;entryPerimeter=0;" edge="1" parent="1" source="RDjT8PZ8NeMzYGrtrsEn-26" target="RDjT8PZ8NeMzYGrtrsEn-2">
          <mxGeometry width="50" height="50" relative="1" as="geometry">
            <mxPoint x="390" y="530" as="sourcePoint" />
            <mxPoint x="100" y="460" as="targetPoint" />
          </mxGeometry>
        </mxCell>
      </root>
    </mxGraphModel>
  </diagram>
</mxfile>
